<?xml version="1.0" encoding="UTF-8" standalone="no"?>
<svg
   width="512px"
   height="512px"
   enable-background="new 0 0 512 512"
   version="1.1"
   viewBox="0 0 512 512"
   xml:space="preserve"
   id="svg870"
   sodipodi:docname="pb-icon.svg"
   inkscape:version="1.1 (c68e22c387, 2021-05-23)"
   xmlns:inkscape="http://www.inkscape.org/namespaces/inkscape"
   xmlns:sodipodi="http://sodipodi.sourceforge.net/DTD/sodipodi-0.dtd"
   xmlns="http://www.w3.org/2000/svg"
   xmlns:svg="http://www.w3.org/2000/svg"><sodipodi:namedview
   id="namedview16"
   pagecolor="#ffffff"
   bordercolor="#666666"
   borderopacity="1.0"
   inkscape:pageshadow="2"
   inkscape:pageopacity="0.0"
   inkscape:pagecheckerboard="0"
   showgrid="false"
   inkscape:zoom="0.76074219"
   inkscape:cx="437.07317"
   inkscape:cy="230.69576"
   inkscape:window-width="2268"
   inkscape:window-height="1003"
   inkscape:window-x="17"
   inkscape:window-y="186"
   inkscape:window-maximized="0"
   inkscape:current-layer="svg870" /><defs
   id="defs874" />
<style
   type="text/css"
   id="style850">
	.st0{fill:#691640;}
	.st1 { 
}
	.st2 { 
}
	.st3{fill:#FFFFFF;}
</style>

<path
   d="M 512,1.13e-4 0,0 v 512 h 512 z"
   id="path852"
   style="fill:#5e6800;fill-opacity:1" /><path
   class="st1"
   d="m177 0h156c-12 28.9-18.7 60.7-18.7 94 0 7.5 0.4 15 1.1 22.3-61.9-15.9-113-59.3-139-116zm191 123c-18.1 0-35.7-2.3-52.5-6.6 9.8 109 91 198 196 218v-269c-37.5 35.3-88.2 57-144 57z"
   id="path854"
   style="fill:#c3d225;fill-opacity:1" /><path
   class="st2"
   d="m512 65.8c-37.6 35.4-88.2 57.1-144 57.1-18.1 0-35.7-2.3-52.5-6.6-0.7-7.4-1.1-14.8-1.1-22.3 0-33.3 6.7-65 18.7-94h179z"
   id="path856"
   style="fill:#91a000;fill-opacity:1" /><path
   class="st1"
   d="m343 512h-75.2c-13.2-74-77.8-130-156-130-44 0-83.8 18-112 47.1v-246c185 0 336 146 343 329z"
   id="path858"
   style="fill-opacity:1;fill:#c3d225" /><path
   class="st2"
   d="m0 429c28.7-29 68.5-47 112-47.1 77.8 0 142 56.2 156 130h-268z"
   id="path860"
   style="fill:#91a000;fill-opacity:1" /><g
   id="g868">
<path
   class="st3"
   d="m422 256c0 91.6-74.3 166-166 166s-166-74.4-166-166 74.4-166 166-166 166 74.4 166 166z"
   id="path862" />


</g><style
   type="text/css"
   id="style17450">
	.st0{fill:#691640;}
	.st1{fill:#B81466;}
	.st2{fill:#99004D;}
	.st3{fill:#FFFFFF;}
</style><g
   aria-label="P"
   id="text1913"
   style="font-weight:bold;font-size:239.122px;line-height:1.25;font-family:Inter;-inkscape-font-specification:'Inter Bold';fill:#5e6800"><path
     d="m 235.02764,282.10348 v 59.89725 H 200.00001 V 171.99994 H 266.319 q 19.14844,0 33.62653,7.00553 14.59485,7.00552 22.41769,19.96575 7.82283,12.84347 7.82283,29.30645 0,24.98638 -17.16354,39.46447 -17.04678,14.36134 -47.28731,14.36134 z m 0,-28.37239 H 266.319 q 13.89429,0 21.13334,-6.53849 7.3558,-6.53849 7.3558,-18.68141 0,-12.49319 -7.3558,-20.19927 -7.35581,-7.70608 -20.31603,-7.9396 h -32.10867 z"
     style="font-family:Roboto;-inkscape-font-specification:'Roboto Bold'"
     id="path21405" /></g></svg>
