<?xml version="1.0" encoding="UTF-8"?>
<svg width="170" height="38" version="1.1" viewBox="0 0 170 38" xmlns="http://www.w3.org/2000/svg">
 <defs>
  <style>.cls-1{fill:#fff;}</style>
 </defs>
 <style type="text/css">.st0{fill:#FFFFFF;}
	.st1{fill:url(#SVGID_1_);}
	.st2{fill:url(#SVGID_00000041989012779168807520000017845673031992982916_);}
	.st3{fill:url(#SVGID_00000021805363514342569960000004362969989393277828_);}
	.st4{fill:url(#SVGID_00000008140952037104625600000005258793588066340250_);}
	.st5{fill:url(#SVGID_00000013175170433757424260000017585302149079465607_);}
	.st6{fill:url(#SVGID_00000142875707365299217110000011360403502459174549_);}</style>
 <g transform="matrix(.238 0 0 .238 -15.9 -49.1)" stroke-width="4.21">
  <path class="st0" d="m331 236h-44.2v99.8h14.1v-32h30c9.6 0.3 18.8-3.5 25.3-10.6 5.5-6.5 8.5-14.7 8.4-23.2 0.2-16.4-10.4-34-33.6-34zm0 54.2h-30v-40.5h30c13.5 0 19.6 10.6 19.6 20.2 0.1 5.1-1.6 10.2-4.9 14.1-3.7 4.2-9.1 6.4-14.7 6.2z"/>
  <rect class="st0" x="405" y="236" width="14.1" height="99.8"/>
  <polygon class="st0" points="541 241 541 236 528 236 501 274 475 236 462 236 462 241 492 285 459 332 459 336 473 336 501 296 529 336 543 336 543 331 510 285"/>
  <polygon class="st0" points="650 322 597 322 597 236 583 236 583 336 650 336"/>
  <path class="st0" d="m704 301h20.3l32 35h19l-33.2-36.1c6.6-1 12.7-4 17.5-8.7 5.8-6.1 8.9-14.2 8.6-22.6 0-15.6-10.8-32.4-34-32.4h-44.3v99.8h14.1zm30.3-51c5.2-0.3 10.3 1.6 14.1 5.3 3.4 3.6 5.2 8.3 5.1 13.3 0 12.4-6.8 18.6-19.9 18.6h-29.5v-37.2z"/>
  <path class="st0" d="m147 206c-36.9 0-67.9 24.9-77.2 58.9 0.7 0.9 4.3 2.9 4.9 3.3 1.7 1.1 3.5 2.2 5.3 3.3 3.6 2.1 7.3 3.9 11.1 5.5 7.5 3.1 15.3 5.2 23.4 6.2 2.1 0.4 4.3 0.5 6.4 0.5 0-0.8-0.1-1.6-0.1-2.4-0.1-3.9 0.1-7.9 0.5-11.8 0.2-1.6 0.3-3.1 0.6-4.7 0.1-0.3 0.1-0.7 0.2-1v-0.3c2.5-13.4 9.5-25.3 22.5-31.1 13.4-5.9 28.7-3.5 37.1 9.1 6.7 11.4 6.4 25.6-0.8 36.7-8.8 13.7-24.3 20.3-40.6 22.5 1 9 2.4 17.7 4.3 27 1.7 7.9 3.6 15.7 5.9 23.5 0.1 0.4 0.2 0.8 0.4 1.2 1.3 4.5 2.8 9 4.3 13.4 40.5-4 72.1-38.2 72.1-79.7-0.2-44.2-36.1-80.1-80.3-80.1z"/>
  <path class="st0" d="m164 271c2.5-2.8 4.1-6.3 4.6-10 0.1-0.8 0.2-1.6 0.2-2.3 0.1-2.4-0.5-4.7-1.6-6.8-1-1.9-2.5-3.4-4.4-4.2-8-3.9-17.5 4.4-20.9 11.3 0 0 0 0.1-0.1 0.1-4.8 9.1-3.5 23.7-3.5 23.7 6.9-1 13.5-3.4 19.6-6.9 2.2-1.3 4.3-2.9 6.1-4.9z"/>
  <path class="st0" d="m122 302c-5.9-0.2-11.8-0.9-17.7-2-13.4-2.6-26.1-7.8-37.6-15.2v1.9c0 40.5 30 73.9 69 79.3-5.5-17.1-9.5-34.6-12.1-52.3-0.5-3.7-1.1-7.6-1.6-11.7z"/>
  <polygon class="st0" points=""/>
 </g>
</svg>
